<?xml version="1.0" encoding="UTF-8" standalone="no"?>
<!DOCTYPE svg PUBLIC "-//W3C//DTD SVG 1.1//EN"
 "http://www.w3.org/Graphics/SVG/1.1/DTD/svg11.dtd">
<!-- Generated by graphviz version 2.38.0 (20140413.2041)
 -->
<!-- Title: graphname Pages: 1 -->
<svg width="379pt" height="476pt"
 viewBox="0.00 0.00 379.00 476.00" xmlns="http://www.w3.org/2000/svg" xmlns:xlink="http://www.w3.org/1999/xlink">
<g id="graph0" class="graph" transform="scale(1 1) rotate(0) translate(4 472)">
<title>graphname</title>
<polygon fill="white" stroke="none" points="-4,4 -4,-472 375,-472 375,4 -4,4"/>
<!-- 0 -->
<g id="node1" class="node"><title>0</title>
<ellipse fill="none" stroke="black" cx="213" cy="-450" rx="27" ry="18"/>
<text text-anchor="middle" x="213" y="-446.3" font-family="Times New Roman,serif" font-size="14.00">0</text>
</g>
<!-- 7 -->
<g id="node2" class="node"><title>7</title>
<ellipse fill="none" stroke="black" cx="295" cy="-378" rx="27" ry="18"/>
<text text-anchor="middle" x="295" y="-374.3" font-family="Times New Roman,serif" font-size="14.00">7</text>
</g>
<!-- 0&#45;&gt;7 -->
<g id="edge1" class="edge"><title>0&#45;&gt;7</title>
<path fill="none" stroke="black" d="M229.201,-435.17C241.183,-424.942 257.691,-410.849 271.175,-399.338"/>
<polygon fill="black" stroke="black" points="273.779,-401.717 279.112,-392.563 269.234,-396.394 273.779,-401.717"/>
</g>
<!-- 1 -->
<g id="node4" class="node"><title>1</title>
<ellipse fill="none" stroke="black" cx="213" cy="-378" rx="27" ry="18"/>
<text text-anchor="middle" x="213" y="-374.3" font-family="Times New Roman,serif" font-size="14.00">1</text>
</g>
<!-- 0&#45;&gt;1 -->
<g id="edge3" class="edge"><title>0&#45;&gt;1</title>
<path fill="none" stroke="black" d="M213,-431.697C213,-423.983 213,-414.712 213,-406.112"/>
<polygon fill="black" stroke="black" points="216.5,-406.104 213,-396.104 209.5,-406.104 216.5,-406.104"/>
</g>
<!-- 8 -->
<g id="node10" class="node"><title>8</title>
<ellipse fill="none" stroke="black" cx="27" cy="-306" rx="27" ry="18"/>
<text text-anchor="middle" x="27" y="-302.3" font-family="Times New Roman,serif" font-size="14.00">8</text>
</g>
<!-- 0&#45;&gt;8 -->
<g id="edge12" class="edge"><title>0&#45;&gt;8</title>
<path fill="none" stroke="black" d="M195.835,-435.896C162.893,-410.746 90.6708,-355.609 52.2333,-326.264"/>
<polygon fill="black" stroke="black" points="54.1959,-323.359 44.1236,-320.073 49.9481,-328.923 54.1959,-323.359"/>
</g>
<!-- 2 -->
<g id="node3" class="node"><title>2</title>
<ellipse fill="none" stroke="black" cx="213" cy="-306" rx="27" ry="18"/>
<text text-anchor="middle" x="213" y="-302.3" font-family="Times New Roman,serif" font-size="14.00">2</text>
</g>
<!-- 7&#45;&gt;2 -->
<g id="edge2" class="edge"><title>7&#45;&gt;2</title>
<path fill="none" stroke="black" d="M278.799,-363.17C266.817,-352.942 250.309,-338.849 236.825,-327.338"/>
<polygon fill="black" stroke="black" points="238.766,-324.394 228.888,-320.563 234.221,-329.717 238.766,-324.394"/>
</g>
<!-- 9 -->
<g id="node5" class="node"><title>9</title>
<ellipse fill="none" stroke="black" cx="200" cy="-234" rx="27" ry="18"/>
<text text-anchor="middle" x="200" y="-230.3" font-family="Times New Roman,serif" font-size="14.00">9</text>
</g>
<!-- 7&#45;&gt;9 -->
<g id="edge8" class="edge"><title>7&#45;&gt;9</title>
<path fill="none" stroke="black" d="M288.088,-360.499C279.998,-342.043 265.579,-311.639 249,-288 241.242,-276.939 231.328,-265.794 222.45,-256.598"/>
<polygon fill="black" stroke="black" points="224.827,-254.024 215.306,-249.377 219.85,-258.947 224.827,-254.024"/>
</g>
<!-- 10 -->
<g id="node6" class="node"><title>10</title>
<ellipse fill="none" stroke="black" cx="272" cy="-234" rx="27" ry="18"/>
<text text-anchor="middle" x="272" y="-230.3" font-family="Times New Roman,serif" font-size="14.00">10</text>
</g>
<!-- 7&#45;&gt;10 -->
<g id="edge10" class="edge"><title>7&#45;&gt;10</title>
<path fill="none" stroke="black" d="M305.46,-361.276C316.065,-343.263 329.641,-313.008 320,-288 315.186,-275.512 305.913,-264.142 296.791,-255.164"/>
<polygon fill="black" stroke="black" points="298.986,-252.427 289.265,-248.212 294.236,-257.569 298.986,-252.427"/>
</g>
<!-- 11 -->
<g id="node7" class="node"><title>11</title>
<ellipse fill="none" stroke="black" cx="344" cy="-234" rx="27" ry="18"/>
<text text-anchor="middle" x="344" y="-230.3" font-family="Times New Roman,serif" font-size="14.00">11</text>
</g>
<!-- 7&#45;&gt;11 -->
<g id="edge11" class="edge"><title>7&#45;&gt;11</title>
<path fill="none" stroke="black" d="M309.355,-362.603C318.346,-352.642 329.277,-338.596 335,-324 342.735,-304.271 344.781,-280.288 345.006,-262.191"/>
<polygon fill="black" stroke="black" points="348.505,-262.015 344.95,-252.034 341.505,-262.053 348.505,-262.015"/>
</g>
<!-- 3 -->
<g id="node8" class="node"><title>3</title>
<ellipse fill="none" stroke="black" cx="127" cy="-234" rx="27" ry="18"/>
<text text-anchor="middle" x="127" y="-230.3" font-family="Times New Roman,serif" font-size="14.00">3</text>
</g>
<!-- 7&#45;&gt;3 -->
<g id="edge7" class="edge"><title>7&#45;&gt;3</title>
<path fill="none" stroke="black" d="M271.905,-368.614C241.89,-357.384 191.587,-337.334 177,-324 158.174,-306.792 144.713,-280.805 136.535,-261.347"/>
<polygon fill="black" stroke="black" points="139.7,-259.836 132.739,-251.849 133.2,-262.433 139.7,-259.836"/>
</g>
<!-- 2&#45;&gt;9 -->
<g id="edge21" class="edge"><title>2&#45;&gt;9</title>
<path fill="none" stroke="black" d="M209.853,-288.055C208.421,-280.346 206.691,-271.027 205.082,-262.364"/>
<polygon fill="black" stroke="black" points="208.475,-261.468 203.208,-252.275 201.593,-262.746 208.475,-261.468"/>
</g>
<!-- 2&#45;&gt;10 -->
<g id="edge19" class="edge"><title>2&#45;&gt;10</title>
<path fill="none" stroke="black" d="M225.802,-289.811C233.611,-280.546 243.747,-268.52 252.535,-258.094"/>
<polygon fill="black" stroke="black" points="255.454,-260.061 259.223,-250.159 250.102,-255.55 255.454,-260.061"/>
</g>
<!-- 2&#45;&gt;11 -->
<g id="edge16" class="edge"><title>2&#45;&gt;11</title>
<path fill="none" stroke="black" d="M233.469,-294.063C255.291,-282.402 290.039,-263.834 314.746,-250.632"/>
<polygon fill="black" stroke="black" points="316.505,-253.661 323.675,-245.861 313.206,-247.487 316.505,-253.661"/>
</g>
<!-- 2&#45;&gt;3 -->
<g id="edge23" class="edge"><title>2&#45;&gt;3</title>
<path fill="none" stroke="black" d="M196.418,-291.503C183.688,-281.142 165.914,-266.674 151.538,-254.973"/>
<polygon fill="black" stroke="black" points="153.496,-252.054 143.531,-248.455 149.077,-257.482 153.496,-252.054"/>
</g>
<!-- 1&#45;&gt;2 -->
<g id="edge14" class="edge"><title>1&#45;&gt;2</title>
<path fill="none" stroke="black" d="M213,-359.697C213,-351.983 213,-342.712 213,-334.112"/>
<polygon fill="black" stroke="black" points="216.5,-334.104 213,-324.104 209.5,-334.104 216.5,-334.104"/>
</g>
<!-- 1&#45;&gt;9 -->
<g id="edge4" class="edge"><title>1&#45;&gt;9</title>
<path fill="none" stroke="black" d="M199.25,-362.069C191.039,-352.1 181.381,-338.247 177,-324 170.43,-302.635 177.934,-278.007 186.078,-260.082"/>
<polygon fill="black" stroke="black" points="189.331,-261.397 190.583,-250.877 183.044,-258.32 189.331,-261.397"/>
</g>
<!-- 1&#45;&gt;10 -->
<g id="edge5" class="edge"><title>1&#45;&gt;10</title>
<path fill="none" stroke="black" d="M225.55,-361.615C233.282,-351.465 242.857,-337.581 249,-324 258.017,-304.066 263.972,-279.958 267.559,-261.864"/>
<polygon fill="black" stroke="black" points="271.009,-262.454 269.403,-251.982 264.128,-261.171 271.009,-262.454"/>
</g>
<!-- 1&#45;&gt;11 -->
<g id="edge6" class="edge"><title>1&#45;&gt;11</title>
<path fill="none" stroke="black" d="M228.662,-363.054C240.149,-352.618 255.952,-337.823 269,-324 289.327,-302.466 310.961,-276.419 325.743,-258.084"/>
<polygon fill="black" stroke="black" points="328.501,-260.239 332.023,-250.246 323.039,-255.862 328.501,-260.239"/>
</g>
<!-- 1&#45;&gt;3 -->
<g id="edge15" class="edge"><title>1&#45;&gt;3</title>
<path fill="none" stroke="black" d="M199.208,-361.948C190.235,-351.711 178.639,-337.603 170,-324 157.192,-303.833 145.597,-279.28 137.685,-261.075"/>
<polygon fill="black" stroke="black" points="140.823,-259.51 133.683,-251.682 134.383,-262.254 140.823,-259.51"/>
</g>
<!-- 5 -->
<g id="node9" class="node"><title>5</title>
<ellipse fill="none" stroke="black" cx="236" cy="-90" rx="27" ry="18"/>
<text text-anchor="middle" x="236" y="-86.3" font-family="Times New Roman,serif" font-size="14.00">5</text>
</g>
<!-- 9&#45;&gt;5 -->
<g id="edge9" class="edge"><title>9&#45;&gt;5</title>
<path fill="none" stroke="black" d="M205.791,-216.417C209.299,-206.031 213.716,-192.325 217,-180 222.456,-159.518 227.412,-136.062 230.893,-118.373"/>
<polygon fill="black" stroke="black" points="234.401,-118.665 232.861,-108.183 227.528,-117.337 234.401,-118.665"/>
</g>
<!-- 4 -->
<g id="node13" class="node"><title>4</title>
<ellipse fill="none" stroke="black" cx="181" cy="-162" rx="27" ry="18"/>
<text text-anchor="middle" x="181" y="-158.3" font-family="Times New Roman,serif" font-size="14.00">4</text>
</g>
<!-- 9&#45;&gt;4 -->
<g id="edge22" class="edge"><title>9&#45;&gt;4</title>
<path fill="none" stroke="black" d="M195.401,-216.055C193.254,-208.145 190.647,-198.54 188.244,-189.688"/>
<polygon fill="black" stroke="black" points="191.554,-188.523 185.557,-179.789 184.799,-190.357 191.554,-188.523"/>
</g>
<!-- 10&#45;&gt;5 -->
<g id="edge20" class="edge"><title>10&#45;&gt;5</title>
<path fill="none" stroke="black" d="M267.729,-216.153C261.558,-191.813 250.088,-146.568 242.76,-117.665"/>
<polygon fill="black" stroke="black" points="246.116,-116.658 240.265,-107.825 239.33,-118.378 246.116,-116.658"/>
</g>
<!-- 12 -->
<g id="node11" class="node"><title>12</title>
<ellipse fill="none" stroke="black" cx="318" cy="-90" rx="27" ry="18"/>
<text text-anchor="middle" x="318" y="-86.3" font-family="Times New Roman,serif" font-size="14.00">12</text>
</g>
<!-- 11&#45;&gt;12 -->
<g id="edge17" class="edge"><title>11&#45;&gt;12</title>
<path fill="none" stroke="black" d="M340.864,-215.871C336.433,-191.67 328.292,-147.211 323.016,-118.393"/>
<polygon fill="black" stroke="black" points="326.391,-117.395 321.147,-108.189 319.506,-118.656 326.391,-117.395"/>
</g>
<!-- 3&#45;&gt;5 -->
<g id="edge24" class="edge"><title>3&#45;&gt;5</title>
<path fill="none" stroke="black" d="M126.456,-215.969C126.682,-196.756 129.672,-165.404 145,-144 159.088,-124.328 182.93,-110.831 202.676,-102.382"/>
<polygon fill="black" stroke="black" points="204.012,-105.617 211.98,-98.6348 201.396,-99.1243 204.012,-105.617"/>
</g>
<!-- 3&#45;&gt;4 -->
<g id="edge25" class="edge"><title>3&#45;&gt;4</title>
<path fill="none" stroke="black" d="M138.984,-217.465C145.976,-208.402 154.936,-196.786 162.785,-186.612"/>
<polygon fill="black" stroke="black" points="165.712,-188.548 169.049,-178.492 160.17,-184.272 165.712,-188.548"/>
</g>
<!-- 6 -->
<g id="node12" class="node"><title>6</title>
<ellipse fill="none" stroke="black" cx="277" cy="-18" rx="27" ry="18"/>
<text text-anchor="middle" x="277" y="-14.3" font-family="Times New Roman,serif" font-size="14.00">6</text>
</g>
<!-- 5&#45;&gt;6 -->
<g id="edge26" class="edge"><title>5&#45;&gt;6</title>
<path fill="none" stroke="black" d="M245.509,-72.7646C250.529,-64.1948 256.796,-53.494 262.415,-43.9004"/>
<polygon fill="black" stroke="black" points="265.508,-45.5451 267.542,-35.1473 259.468,-42.0072 265.508,-45.5451"/>
</g>
<!-- 8&#45;&gt;3 -->
<g id="edge13" class="edge"><title>8&#45;&gt;3</title>
<path fill="none" stroke="black" d="M44.878,-292.485C60.2824,-281.702 82.741,-265.981 100.28,-253.704"/>
<polygon fill="black" stroke="black" points="102.754,-256.244 108.94,-247.642 98.7402,-250.51 102.754,-256.244"/>
</g>
<!-- 12&#45;&gt;6 -->
<g id="edge18" class="edge"><title>12&#45;&gt;6</title>
<path fill="none" stroke="black" d="M308.491,-72.7646C303.471,-64.1948 297.204,-53.494 291.585,-43.9004"/>
<polygon fill="black" stroke="black" points="294.532,-42.0072 286.458,-35.1473 288.492,-45.5451 294.532,-42.0072"/>
</g>
<!-- 4&#45;&gt;5 -->
<g id="edge27" class="edge"><title>4&#45;&gt;5</title>
<path fill="none" stroke="black" d="M192.934,-145.811C200.214,-136.546 209.663,-124.52 217.854,-114.094"/>
<polygon fill="black" stroke="black" points="220.663,-116.185 224.089,-106.159 215.159,-111.86 220.663,-116.185"/>
</g>
</g>
</svg>
